<svg width="24" height="24" viewBox="0 0 24 24" fill="none" xmlns="http://www.w3.org/2000/svg">
<g clip-path="url(#clip0_1_4040)">
<rect width="24" height="24" fill="white" fill-opacity="0.01"/>
<path fill-rule="evenodd" clip-rule="evenodd" d="M12.2137 5.02628L21.3744 14.187V20.6102C21.3744 21.2176 21.1331 21.8001 20.7036 22.2296C20.2741 22.6591 19.6916 22.9004 19.0842 22.9004H5.34316C4.73577 22.9004 4.15325 22.6591 3.72376 22.2296C3.29427 21.8001 3.05298 21.2176 3.05298 20.6102V14.187L12.2137 5.02628ZM19.8476 3.81554V9.15929L16.7941 6.10572V3.81554C16.7941 3.61308 16.8745 3.41891 17.0176 3.27574C17.1608 3.13258 17.355 3.05215 17.5574 3.05215H19.0842C19.2867 3.05215 19.4809 3.13258 19.624 3.27574C19.7672 3.41891 19.8476 3.61308 19.8476 3.81554Z" fill="#212529"/>
<path fill-rule="evenodd" clip-rule="evenodd" d="M11.1343 2.28876C11.4206 2.00253 11.8088 1.84174 12.2137 1.84174C12.6185 1.84174 13.0068 2.00253 13.2931 2.28876L23.4417 12.4358C23.585 12.5791 23.6656 12.7735 23.6656 12.9763C23.6656 13.179 23.585 13.3734 23.4417 13.5167C23.2983 13.6601 23.1039 13.7406 22.9012 13.7406C22.6985 13.7406 22.5041 13.6601 22.3607 13.5167L12.2137 3.3682L2.06668 13.5167C1.92334 13.6601 1.72892 13.7406 1.5262 13.7406C1.32348 13.7406 1.12906 13.6601 0.985716 13.5167C0.842371 13.3734 0.761841 13.179 0.761841 12.9763C0.761841 12.7735 0.842371 12.5791 0.985716 12.4358L11.1343 2.28876Z" fill="#212529"/>
</g>
<defs>
<clipPath id="clip0_1_4040">
<rect width="24" height="24" fill="white"/>
</clipPath>
</defs>
</svg>
