<svg width="24" height="24" viewBox="0 0 24 24" fill="none" xmlns="http://www.w3.org/2000/svg">
<g id="icon-wrapper">
<g id="Union">
<path fill-rule="evenodd" clip-rule="evenodd" d="M12.2137 5.0263L21.3744 14.187V20.6102C21.3744 21.2176 21.1331 21.8001 20.7036 22.2296C20.2741 22.6591 19.6916 22.9004 19.0842 22.9004H5.34316C4.73577 22.9004 4.15325 22.6591 3.72376 22.2296C3.29427 21.8001 3.05298 21.2176 3.05298 20.6102V14.187L12.2137 5.0263ZM19.8476 3.81556V9.15931L16.7941 6.10574V3.81556C16.7941 3.61309 16.8745 3.41892 17.0176 3.27576C17.1608 3.13259 17.355 3.05217 17.5574 3.05217H19.0842C19.2867 3.05217 19.4809 3.13259 19.624 3.27576C19.7672 3.41892 19.8476 3.61309 19.8476 3.81556Z" fill="#D5DADE"/>
<path fill-rule="evenodd" clip-rule="evenodd" d="M11.1343 2.28877C11.4206 2.00255 11.8088 1.84175 12.2137 1.84175C12.6185 1.84175 13.0068 2.00255 13.2931 2.28877L23.4417 12.4358C23.585 12.5791 23.6656 12.7736 23.6656 12.9763C23.6656 13.179 23.585 13.3734 23.4417 13.5168C23.2983 13.6601 23.1039 13.7406 22.9012 13.7406C22.6985 13.7406 22.5041 13.6601 22.3607 13.5168L12.2137 3.36821L2.06668 13.5168C1.92334 13.6601 1.72892 13.7406 1.5262 13.7406C1.32348 13.7406 1.12906 13.6601 0.985716 13.5168C0.842371 13.3734 0.761841 13.179 0.761841 12.9763C0.761841 12.7736 0.842371 12.5791 0.985716 12.4358L11.1343 2.28877Z" fill="#D5DADE"/>
</g>
</g>
</svg>
