<svg width="77" height="89" viewBox="0 0 77 89" fill="none" xmlns="http://www.w3.org/2000/svg">
<g clip-path="url(#clip0_1_4037)">
<path d="M40.6748 89H0V0H43.5782C54.5037 0.160643 62.2447 3.32055 66.8012 9.47973C69.5419 13.2646 70.914 17.7926 70.914 23.0656C70.914 28.3386 69.5437 32.8684 66.8012 36.1677C65.2682 38.0195 63.0103 39.7107 60.0274 41.2395C64.584 42.89 68.0195 45.5062 70.3393 49.0898C72.6574 52.6734 73.8173 57.0214 73.8173 62.1319C73.8173 67.2425 72.4876 72.136 69.8248 76.3215C68.1309 79.0984 66.0144 81.4339 63.4735 83.3245C60.6109 85.4994 57.2337 86.9875 53.3437 87.7925C49.452 88.5993 45.2296 89 40.6731 89H40.6748Z" fill="#FF6914"/>
<path d="M42.602 23.5537C41.447 23.6619 40.3655 23.4566 39.4878 22.7032C38.5733 21.9204 34.4896 11.1379 16.0907 17.9664C2.4036 23.0478 0 42.2388 0 42.2388V91.6197H20C31.9648 78.797 38.397 65.8257 33.5807 49.564C35.2351 49.8977 40.0129 51.1314 43.3713 50.7207C49.2913 49.9985 53.2851 44.1655 53.0151 43.1756C51.6196 43.533 48.6596 43.7457 47.4349 43.6852C45.7658 43.6027 43.8139 43.3681 42.2733 42.0079C39.4345 39.4983 41.9868 37.0291 44.429 35.9732C48.0684 34.4004 54.6071 34.0099 55.6721 29.3171C55.7915 28.7947 56.996 22.2376 55.4334 20.7765C49.2178 22.298 46.8363 23.1541 42.6038 23.5537H42.602Z" fill="white"/>
<path d="M25.7909 27.1858C25.7909 27.1858 24.305 42.546 15.9756 48.5522C12.3259 46.9237 6.33937 39.4219 4.77405 31.0012C5.19744 37.3802 6.89507 46.6374 16.1364 53.6655C19.3545 50.872 28.0748 42.7193 25.7929 27.1858H25.7909Z" fill="#FF6914"/>
<path d="M34.329 28.1563C35.6697 27.7016 36.5427 26.7043 36.2789 25.9288C36.015 25.1532 34.7142 24.893 33.3735 25.3477C32.0327 25.8023 31.1597 26.7996 31.4235 27.5752C31.6874 28.3508 32.9882 28.611 34.329 28.1563Z" fill="#FF6914"/>
</g>
<defs>
<clipPath id="clip0_1_4037">
<rect width="77" height="89" fill="white"/>
</clipPath>
</defs>
</svg>
