<svg width="24" height="24" viewBox="0 0 24 24" fill="none" xmlns="http://www.w3.org/2000/svg">
<g clip-path="url(#clip0_1_4043)">
<rect width="24" height="24" fill="white" fill-opacity="0.01"/>
<g clip-path="url(#clip1_1_4043)">
<path d="M12.2136 24.427C13.0235 24.427 13.8002 24.1053 14.3728 23.5326C14.9455 22.96 15.2672 22.1833 15.2672 21.3734H9.16005C9.16005 22.1833 9.48177 22.96 10.0544 23.5326C10.6271 24.1053 11.4038 24.427 12.2136 24.427ZM13.7328 1.67634C13.7541 1.46405 13.7307 1.24965 13.664 1.04696C13.5974 0.844276 13.489 0.657809 13.3459 0.499586C13.2027 0.341363 13.028 0.214896 12.833 0.128343C12.638 0.0417891 12.427 -0.00292969 12.2136 -0.00292969C12.0003 -0.00292969 11.7893 0.0417891 11.5943 0.128343C11.3992 0.214896 11.2245 0.341363 11.0814 0.499586C10.9383 0.657809 10.8299 0.844276 10.7632 1.04696C10.6966 1.24965 10.6732 1.46405 10.6945 1.67634C8.96877 2.02735 7.41741 2.96397 6.30308 4.32761C5.18874 5.69124 4.57992 7.39809 4.57969 9.15912C4.57969 10.8355 3.8163 18.3198 1.52612 19.8466H22.9011C20.6109 18.3198 19.8476 10.8355 19.8476 9.15912C19.8476 5.4643 17.2215 2.38019 13.7328 1.67634Z" fill="#212529"/>
</g>
</g>
<defs>
<clipPath id="clip0_1_4043">
<rect width="24" height="24" fill="white"/>
</clipPath>
<clipPath id="clip1_1_4043">
<rect width="24" height="24" fill="white"/>
</clipPath>
</defs>
</svg>
